<svg width="49" height="55" viewBox="0 0 49 55" fill="none" xmlns="http://www.w3.org/2000/svg">
<path d="M35 0L4 0C1.79086 0 0 1.79086 0 4L0 9.77556C0 11.9939 1.80531 13.7886 4.02366 13.7755L20.9763 13.6752C23.1947 13.6621 25 15.4568 25 17.6752V37.2736C25 39.4735 23.2235 41.2605 21.0237 41.2735L3.97634 41.3743C1.77648 41.3873 0 43.1744 0 45.3743L0 51C0 53.2091 1.79086 55 4 55H35C37.2091 55 39 53.2241 39 51.015V3.99804C39 1.7889 37.2091 0 35 0Z" fill="#F1616D"/>
<path d="M15.5403 49.8304L20.9549 43.6652L20.9257 37.6426C20.9149 35.4259 22.7089 33.6232 24.9256 33.6232H29.7745L31.7618 31.3604C32.5213 30.4957 33.6164 30 34.7673 30L40.3183 30C43.6474 30 45.5197 33.8295 43.475 36.4567L38.9913 42.2179L39.0373 51.7024C39.0461 53.521 37.5743 55 35.7557 55C33.0244 55 31.4885 51.8583 33.166 49.7028L38.9913 42.2179L38.9688 37.6037C38.9582 35.4022 37.1705 33.6232 34.9689 33.6232H29.7745L20.9549 43.6652L20.9948 51.8704C21.0031 53.5964 19.6063 55 17.8804 55C15.2019 55 13.7728 51.8429 15.5403 49.8304Z" fill="#3498DB"/>
</svg>
